<svg width="16" height="16" viewBox="0 0 16 16" fill="none" xmlns="http://www.w3.org/2000/svg">
<path d="M2.67497 7.56647C3.29887 8.0647 4.01494 8.41611 4.73337 8.75308C5.65031 9.18152 6.57907 9.58107 7.47947 10.0384C8.29951 10.4572 9.06521 10.9963 9.57094 11.8003C9.59221 11.8315 9.60167 11.8484 9.63475 11.911C9.67256 11.8412 9.70565 11.7882 9.73165 11.7329C10.2681 10.6209 10.1192 9.58107 9.35825 8.64718C8.70599 7.84808 7.84577 7.32337 6.93119 6.8853C6.1206 6.49779 5.29582 6.13916 4.49468 5.72998C3.9275 5.44115 3.42649 5.04641 3.11454 4.46153C2.5639 3.43136 2.95147 1.97757 3.95349 1.25068C4.70028 0.709122 5.54396 0.480464 6.442 0.439546C7.24787 0.403442 8.03483 0.509347 8.76744 0.880014C9.71983 1.3614 10.3508 2.15087 10.7904 3.11365C11.3528 4.35081 11.5372 5.67221 11.5986 7.01287C11.6506 8.15616 11.5797 9.29223 11.3292 10.4139C11.211 10.9386 11.0598 11.4488 10.8566 11.9375H12.8417C13.4396 10.9699 13.8059 9.86268 13.943 8.62552C14.1509 6.74089 13.7941 4.96217 12.8086 3.33749C11.7262 1.54673 10.1381 0.494905 8.11282 0.121831C7.25023 -0.0370265 6.37819 -0.0322126 5.50851 0.0881339C4.51358 0.225329 3.58483 0.535823 2.74114 1.10627C1.2712 2.09792 0.637849 3.99217 1.20739 5.69147C1.4768 6.49779 2.04635 7.06101 2.67497 7.56406V7.56647Z" fill="white"/>
<path d="M9.18798 14.1279C8.49082 14.5587 7.65423 14.7056 6.64749 14.7128L4.65999 14.6791C4.65999 13.6658 4.65999 11.9785 4.65999 10.6258C4.65999 10.4862 4.63399 10.3972 4.49456 10.3274C3.81867 9.9928 3.14987 9.64139 2.47635 9.2972C2.4409 9.27794 2.40072 9.27072 2.34164 9.25146C2.33691 9.32608 2.33219 9.38144 2.33219 9.4368C2.33219 10.5464 2.34164 11.656 2.32746 12.7656C2.32273 13.1122 2.28256 13.4636 2.2093 13.8006C2.07932 14.3951 1.791 14.8813 1.19546 15.1196C1.13638 15.1436 1.04185 15.211 1.06548 15.3193C1.07494 15.3458 1.07966 15.3795 1.12456 15.3915C1.19783 15.3939 1.28054 15.3915 1.35853 15.3915C3.04116 15.3939 4.72144 15.4036 6.40407 15.3915C6.92635 15.3867 7.45099 15.3554 7.96618 15.2808C8.96111 15.134 9.88042 14.7585 10.7052 14.1809C10.7288 14.164 10.7525 14.1448 10.7761 14.1279H9.18562H9.18798Z" fill="white"/>
<path d="M6.06402 13.7018V13.4563C6.21054 13.5237 6.37125 13.5574 6.48468 13.5574C6.6312 13.5574 6.71628 13.514 6.71628 13.3865C6.71628 13.2421 6.56267 13.2108 6.44923 13.1602C6.26254 13.0784 6.02148 12.999 6.02148 12.7414C6.02148 12.4839 6.21527 12.3467 6.52013 12.3467C6.63829 12.3467 6.77064 12.3732 6.84626 12.4044C6.93134 12.4381 6.96206 12.4742 6.96206 12.5344C6.96206 12.6042 6.92425 12.6524 6.85335 12.6524C6.82499 12.6524 6.79663 12.6427 6.76355 12.6331C6.70446 12.6138 6.61939 12.5874 6.52013 12.5874C6.39488 12.5874 6.32162 12.6355 6.32162 12.7438C6.32162 12.8569 6.43269 12.8786 6.55794 12.934C6.82735 13.0543 7.01641 13.1313 7.01641 13.3865C7.01641 13.6416 6.8628 13.7957 6.48468 13.7957C6.34052 13.7957 6.18219 13.7571 6.06402 13.6994V13.7018Z" fill="white"/>
<path d="M7.64042 12.6163H7.34265C7.2434 12.6163 7.19141 12.573 7.19141 12.4888C7.19141 12.4045 7.2434 12.3612 7.34265 12.3612H8.3754V12.6163H7.94292V13.7741H7.64279V12.6163H7.64042Z" fill="white"/>
<path d="M8.60229 13.1963V12.5152C8.60229 12.4261 8.6472 12.3467 8.75354 12.3467C8.85989 12.3467 8.90479 12.4237 8.90479 12.5152V13.1963C8.90479 13.4539 8.98987 13.5429 9.19311 13.5429C9.39635 13.5429 9.48143 13.4539 9.48143 13.1963V12.3611H9.78156V13.1963C9.78156 13.5838 9.58541 13.7981 9.19311 13.7981C8.80081 13.7981 8.60466 13.5838 8.60466 13.1963H8.60229Z" fill="white"/>
<path d="M10.1479 12.6283C10.1479 12.4454 10.1999 12.3635 10.3795 12.3635H10.6252C11.0672 12.3635 11.3082 12.6259 11.3082 13.0639C11.3082 13.502 11.0672 13.774 10.6252 13.774H10.1455V12.6283H10.1479ZM10.6252 13.5237C10.8758 13.5237 11.0105 13.3817 11.0105 13.0639C11.0105 12.7462 10.8734 12.6163 10.6252 12.6163H10.4504V13.5237H10.6252Z" fill="white"/>
<path d="M11.6226 12.5152C11.6226 12.4261 11.6675 12.3467 11.7738 12.3467C11.8802 12.3467 11.9251 12.4237 11.9251 12.5152V13.774H11.6249V12.5152H11.6226Z" fill="white"/>
<path d="M12.2275 13.0712C12.2275 12.6476 12.4875 12.3491 12.9294 12.3491C13.3714 12.3491 13.6313 12.6476 13.6313 13.0712C13.6313 13.4948 13.3737 13.7981 12.9294 13.7981C12.4851 13.7981 12.2275 13.5044 12.2275 13.0712ZM13.3312 13.0712C13.3312 12.7968 13.1894 12.6043 12.9294 12.6043C12.6695 12.6043 12.5277 12.7968 12.5277 13.0712C12.5277 13.3456 12.6671 13.5478 12.9294 13.5478C13.1917 13.5478 13.3312 13.336 13.3312 13.0712Z" fill="white"/>
</svg>
